<svg xmlns="http://www.w3.org/2000/svg" height="301" viewBox="0 0 480 301" width="480"><g fill="none" fill-rule="evenodd"><g><path d="m444 .00000304c-24 .00000226-278.097656-.00000785-420 0-12 .00000066-24 12.00559846-24 24.01119696 0 72.1801435.0000029 216.100772 0 240.111969-.00000139 24.011197 12 36.016796 36 36.016796 133.869629 0 384 .000002 408 0 24 0 36-12.005599 36-36.016796-.000002-24.011197-.000006-148.35336 0-228.1063706 0-24.0111969-12-36.01679536-36-36.01679536z" fill="#f4f4f4"></path><g transform="translate(76 102)"><g fill="#265797"><path d="m.95559171 69.5532577c-.32327362-.2126105 1.89909405-8.7740402 7.19787858-27.7290459 4.21605031-15.0818118 8.18114271-29.1897408 8.81131751-31.3509634l1.1457709-3.92949547 16.5659289.30244939c19.3659158.35358202 22.3470312.60947097 25.4623196 2.18566394 5.5229096 2.79433654 7.0432857 7.09373524 5.1400519 14.53530304-1.6209947 6.3380271-4.7178073 10.651481-10.705677 14.9116089-1.135638.8079617-2.1277086 1.7956819-2.2046018 2.1949454-.0853458.4431629.6223496 1.4195454 1.8168332 2.5066198 1.0761479.9793822 2.2200545 2.2900983 2.5420207 2.9127052.8663211 1.6752811.7158972 5.0319557-.4862099 10.8495927-.5893776 2.8523074-1.1822339 6.9286368-1.3174575 9.0585153l-.2458592 3.8724924h-8.0184021c-5.6783403 0-8.1650183-.1466081-8.520784-.5023755-.7824204-.7824235-.6054479-2.7782734.7535672-8.4985641 1.512422-6.3659924 1.6039495-8.86425.3816836-10.4181143-1.6146122-2.0526433-3.0789456-2.4964997-8.8757457-2.6903134-4.6770544-.1563815-5.456904-.0860731-6.1662897.5559111-1.1030173.9982193-1.9983593 3.5761474-4.6140623 13.2851542l-2.2275643 8.268302-7.98352528-.006451c-4.39093931-.0032255-8.19397626-.1448261-8.45119331-.3139887zm42.14719859-35.5199541c3.8071006-1.1305948 5.4108968-3.613636 5.4160754-8.3853402.0016934-1.4356408-.2414346-2.4459477-.7302991-3.0363961-1.1555991-1.3957329-4.6362838-1.8695464-11.1651015-1.5198592l-5.6754244.3039654-.826448 2.783265c-1.2761442 4.2977133-2.1711015 8.4530762-2.0314056 9.4319987.0914016.6405005.5336864.9667946 1.5918375 1.1743733 2.3179943.4547183 10.9943511-.0314489 13.4207657-.7520069z" opacity=".938"></path><path id="path4512-4" d="m69.9543443 70.781094c-2.5356286-.9067676-4.5291335-2.5995552-5.3667418-4.5571665-1.5922391-3.721304-.1282242-11.9924768 5.6843366-32.1144935 1.3919776-4.8187727 2.5308685-8.8086419 2.5308685-8.8663788s.2960443-.4010134.6578756-.7628447c.5369999-.5370015 1.7627331-.657878 6.6711238-.657878 3.3072837 0 6.4815145.1780328 7.0538516.3956429l1.0406188.3956348-1.0382238 3.6861861c-2.5458825 9.0391218-5.1863374 20.0038335-5.6427975 23.4322759-.4146089 3.1140587-.3987152 3.9418735.0954997 4.9730254 1.1242647 2.3457306 5.205626 2.8418485 8.6790404 1.0550046 4.0749586-2.0963088 4.8393112-3.8905231 11.3897548-26.7361729.960457-3.3497316 1.693046-5.0904909 2.510644-5.965737l1.154472-1.2358598h6.543541c5.060437 0 6.592005.1262712 6.757337.5571207.163752.4267289-8.151876 31.3874602-11.656909 43.4009593l-.549645 1.8839161-6.9955508.2093204c-3.8475591.1151351-6.9952438.0917178-6.9948568-.0520116.0003871-.1437455.2860073-1.0700194.6347269-2.0583847 1.4146667-4.0096014-.3491389-4.2611359-5.5012615-.7845202-5.0909505 3.4353371-7.2253286 4.2491692-11.6328952 4.4355642-2.9797503.1260051-4.2855999-.0112087-6.0248093-.6331947z" opacity=".938"></path><path d="m116.4649 69.5396701c-.372016-.236439 1.78182-8.5451407 8.164803-31.496878l8.670113-31.17572063 14.651535.12265058c18.27738.1529947 22.01436.47726476 25.547995 2.21686282 2.90552 1.43038313 4.288851 2.70954563 5.582198 5.16181533 2.172818 4.1198095 2.136555 8.8983276-.11728 15.4554565-3.464246 10.0785794-9.930682 16.7054038-18.454623 18.9123321-1.38154.3576945-5.714549.8416281-9.628908 1.075406-12.931637.7723116-12.154076.6269453-12.846725 2.4018467-.331012.8482404-1.622786 5.1687905-2.870596 9.6012259l-2.268746 8.0589816-7.962232-.006451c-4.379222-.0032255-8.189615-.1509385-8.467534-.3275763zm37.701231-33.5547144c4.261346-.5491537 6.500061-1.8635631 7.92205-4.6512147 1.528012-2.9955126 1.931299-6.2564294.957545-7.7425657-1.327013-2.0252747-3.144031-2.4677522-9.990538-2.4328762-3.409178.0173372-6.36613.1999906-6.571007.4058435-.468765.4709912-3.348449 11.8535293-3.348449 13.2354247 0 .5632089.125593 1.1496093.279104 1.303112.396748.3967476 7.349866.3206091 10.751295-.1177236z" opacity=".938"></path><path id="path4516-8" d="m178.092872 70.9536918c-4.929932-2.0650616-6.207281-5.4778441-4.600727-12.2920635 2.245787-9.5255148 7.193017-12.7110188 24.176525-15.5671968 10.254669-1.7245671 12.814695-2.9850135 13.552196-6.6725301.545589-2.7279472-1.79236-4.2195347-6.621229-4.2242681-3.014559-.0032256-4.145363.4365586-6.760522 2.6276656l-2.107558 1.7658055-5.429703.1392055c-6.293265.1613489-8.231821-.089097-8.231821-1.0634797 0-1.1352879 2.468187-4.6036059 4.775744-6.7109299 2.478211-2.2631491 5.757836-3.9973283 9.308832-4.9222475 7.458227-1.9426207 20.295687-1.7167936 24.707543.4346394 2.361512 1.1515769 4.460587 3.0641195 5.460241 4.975009.946224 1.8087534.607907 3.6856217-3.850857 21.3632309-2.188502 8.6767341-3.979096 16.5164123-3.979096 17.4215026v1.6456143h-5.174669c-2.846074 0-6.04469.1192477-7.10804.2650011l-1.933364.264993-.850409-1.9839316c-.999171-2.3309577-1.116346-2.3302642-6.380717.037658-5.717428 2.5716786-7.812503 3.1448947-12.253994 3.352683-3.77938.1768152-4.430743.0935402-6.698375-.8563285v-.000008zm22.501325-9.7817747c2.886909-1.2770175 6.147834-6.5034642 6.166897-9.8839915l.009193-1.6304705-2.660058.2483976c-2.942606.2747825-9.166651 2.2820668-11.448041 3.6920405-1.926195 1.1904605-3.054507 3.1082527-3.048508 5.1815796.005645 1.9884635.298337 2.5323998 1.678434 3.1203485 1.575814.6713365 7.11958.2375196 9.302083-.7279042z" opacity=".938"></path><path id="path4518-2" d="m223.651288 89.705425c-1.67691-.3781606-1.741219-1.0041623-.575103-5.5977289 1.562734-6.1558978 1.460001-6.0278283 5.316463-6.6273889 4.162685-.6471531 6.021426-1.5618958 6.94974-3.420169 1.028216-2.0582557.954441-10.1405014-.290426-31.8172775-.692746-12.0627448-.865086-17.5338798-.563734-17.8972191.317505-.3828294 2.43636-.5233091 7.892811-.5233091h7.458792l.130279 14.0043575c.088888 9.5541091.278194 14.1520865.595722 14.4692282.761982.7610383 3.563084-3.9758866 15.042598-25.4383831l1.623422-3.0352026h6.58557c3.622063 0 6.674692.1442132 6.783634.320472.209659.3392446-9.769284 18.1276506-19.782772 35.2646377-14.232088 24.356671-16.909024 27.7132488-23.585465 29.5734493-2.17985.6073582-11.820572 1.1216601-13.581531.7245335z" opacity=".938"></path></g><path id="path6141-55" d="m285.352365 84.1189991 19.571815-71.6935366 18.629849 37.0503769z" fill="#479951"></path><path id="path6141-5-1" d="m273.241028 84.3801053 19.571815-71.6935366 18.629848 37.0503769z" fill="#d97b16"></path><path id="tm" d="m327.170414 11.0838112v-4.88633465h-1.858779v-.85194014h4.689191v.85194014h-1.87286v4.88633465zm3.471129 0v-5.73827479h1.408166l1.450408 4.58357896 1.401125-4.58357896h1.380004v5.73827479h-.873064v-4.81592655l-1.478573 4.81592655h-.866021l-1.541943-4.88633465v4.88633465z" fill="#000"></path><path id="circle" d="m339.162885 8.10987252c0 4.39756998-3.564933 7.96250378-7.962503 7.96250378-4.397571 0-7.962508-3.5649338-7.962508-7.96250378 0-4.39757041 3.564937-7.96250543 7.962508-7.96250543 4.39757 0 7.962503 3.56493502 7.962503 7.96250543z" opacity=".938" stroke="#000" stroke-width=".5"></path></g></g></g></svg>